<?xml version="1.0" encoding="UTF-8"?>
<svg width="62px" height="61px" viewBox="0 0 62 61" version="1.1" xmlns="http://www.w3.org/2000/svg" xmlns:xlink="http://www.w3.org/1999/xlink">
    <!-- Generator: sketchtool 55.2 (78181) - https://sketchapp.com -->
    <title>8FA0B02B-581A-4C6B-9A13-782659A79A5D</title>
    <desc>Created with sketchtool.</desc>
    <defs>
        <circle id="path-1" cx="29.4447439" cy="29.4339623" r="29.4339623"></circle>
    </defs>
    <g id="POS-layout-2" stroke="none" stroke-width="1" fill="none" fill-rule="evenodd">
        <g id="7_2_1_1-POS-Single_Account_page_regular" transform="translate(-17.000000, -65.000000)">
            <g id="Group-13" transform="translate(0.000000, 48.000000)">
                <g id="POS/user-menu-POS/user-menuRegular">
                    <g id="Group-4">
                        <g id="regular_full" transform="translate(18.000000, 18.000000)">
                            <g id="Group-10">
                                <g id="Group-3" transform="translate(23.773585, 14.150943)">
                                    <g id="regular"></g>
                                </g>
                                <g id="Oval">
                                    <g id="999805588" transform="translate(0.555256, 0.000000)">
                                        <mask id="mask-2" fill="white">
                                            <use xlink:href="#path-1"></use>
                                        </mask>
                                        <circle stroke="#E4E4E4" cx="29.4447439" cy="29.4339623" r="29.9339623"></circle>
                                    </g>
                                </g>
                                <path d="M26.6037736,24.3396226 L26.0377358,24.3396226 L26.0377358,31.6981132 C26.0377358,32.3233412 25.5308884,32.8301887 24.9056604,32.8301887 C24.2804324,32.8301887 23.7735849,32.3233412 23.7735849,31.6981132 L23.7735849,23.7735849 C23.7735849,23.5499875 23.8384086,23.3415305 23.950288,23.1659819 C24.4505195,21.5506878 25.9561614,20.3773585 27.7358491,20.3773585 L32.8301887,20.3773585 C34.6098763,20.3773585 36.1155182,21.5506878 36.6157497,23.1659819 C36.7276291,23.3415305 36.7924528,23.5499875 36.7924528,23.7735849 L36.7924528,31.6981132 C36.7924528,32.3233412 36.2856054,32.8301887 35.6603774,32.8301887 C35.0351493,32.8301887 34.5283019,32.3233412 34.5283019,31.6981132 L34.5283019,24.3396226 L33.9622642,24.3396226 L33.9622642,32.8301887 L33.9622642,44.7169811 C33.9622642,45.6548232 33.201993,46.4150943 32.2641509,46.4150943 C31.3263089,46.4150943 30.5660377,45.6548232 30.5660377,44.7169811 L30.5660377,33.9622642 L30,33.9622642 L30,44.7169811 C30,45.6548232 29.2397288,46.4150943 28.3018868,46.4150943 C27.3640448,46.4150943 26.6037736,45.6548232 26.6037736,44.7169811 L26.6037736,33.3962264 L26.6037736,24.3396226 Z M30.2830189,19.245283 C28.8762558,19.245283 27.7358491,18.1048762 27.7358491,16.6981132 C27.7358491,15.2913502 28.8762558,14.1509434 30.2830189,14.1509434 C31.6897819,14.1509434 32.8301887,15.2913502 32.8301887,16.6981132 C32.8301887,18.1048762 31.6897819,19.245283 30.2830189,19.245283 Z" id="Combined-Shape" fill="#A5001D"></path>
                            </g>
                        </g>
                    </g>
                </g>
            </g>
        </g>
    </g>
</svg>